<svg xmlns="http://www.w3.org/2000/svg" viewBox="0 0 1920 1536"><g id="Imagen"><rect width="1920" height="1536" style="fill:#fef4ea"/></g><g id="Trazados"><path d="M253.65,355S228.52,165.62,316.49,36.5c0,0,200,121.59,299.51,252.86,0,0-205.26-174.31-294.28-227C321.72,62.32,255.74,173.15,253.65,355Z" style="stroke:#000;stroke-miterlimit:10"/><path d="M1294,277.3S1421.74,133.72,1609.23,38c0,0,81.9,115,55.11,296,0,0-6.18-181-63.87-267.39C1600.47,66.61,1478.91,133.2,1294,277.3Z" style="stroke:#000;stroke-miterlimit:10"/><path d="M650.5,444.5h520.09s266.91-2,268.91,210c0,0-2,235-200,234,0,0-233.31-10.62-283.15-235.31L953.5,593.5c-1.64,0-32.9-50-69,3v51s-38.75,214-285.37,241c0,0-186.63,9-197.63-239C401.5,649.5,394.5,456.5,650.5,444.5Z" style="stroke:#000;stroke-miterlimit:10"/><path d="M441,649s-3-158.55,225.52-163.88c3.2-.07,6.4-.29,9.59-.64,27-3,171.3-12.56,176.73,127.22.37,9.52.24,19.25-2.5,28.38C838.24,680.31,809.7,782.52,646.5,846.5c-15.21,6-63.62,5.55-77.59-.48C525.52,827.3,447.3,795,441,649Z" style="stroke:#fff;stroke-miterlimit:10"/><path d="M994,623s-16.82-158.82,178.59-139.91c0,0,232.41-3.09,227.41,170.91,0,0-2.25,189.53-155.13,196.76C1244.87,850.76,1023,839,994,623Z" style="stroke:#fff;stroke-miterlimit:10"/><rect x="554.5" y="627.5" width="138" height="16" style="fill:#0ed145;stroke:#0ed145;stroke-miterlimit:10"/><rect x="496.5" y="685.5" width="111" height="16" style="fill:#0ed145;stroke:#0ed145;stroke-miterlimit:10"/><rect x="546.5" y="711.5" width="91" height="16" style="fill:#0ed145;stroke:#0ed145;stroke-miterlimit:10"/><rect x="502.5" y="627.5" width="42" height="16" style="fill:#00a8f3;stroke:#00a8f3;stroke-miterlimit:10"/><rect x="648.5" y="711.5" width="44" height="16" style="fill:#00a8f3;stroke:#00a8f3;stroke-miterlimit:10"/><rect x="696.5" y="541.5" width="28" height="16" style="fill:#ff7f27;stroke:#ff7f27;stroke-miterlimit:10"/><rect x="646.5" y="653.5" width="46" height="16" style="fill:#ff7f27;stroke:#ff7f27;stroke-miterlimit:10"/><rect x="529.5" y="739.5" width="104" height="16" style="fill:#ff7f27;stroke:#ff7f27;stroke-miterlimit:10"/><rect x="696.5" y="595.5" width="28" height="16" style="fill:#b83dba;stroke:#b83dba;stroke-miterlimit:10"/><rect x="616.5" y="685.5" width="76" height="16" style="fill:#b83dba;stroke:#b83dba;stroke-miterlimit:10"/><rect x="696.5" y="768.5" width="28" height="16" style="fill:#b83dba;stroke:#b83dba;stroke-miterlimit:10"/><rect x="643.5" y="739.5" width="49" height="16" style="fill:#b83dba;stroke:#b83dba;stroke-miterlimit:10"/><rect x="490.5" y="711.5" width="47" height="16" style="fill:#b83dba;stroke:#b83dba;stroke-miterlimit:10"/><rect x="748.5" y="535.5" width="8" height="246" style="fill:#585858;stroke:#585858;stroke-miterlimit:10"/><rect x="778.5" y="546.5" width="8" height="14" style="fill:#585858;stroke:#585858;stroke-miterlimit:10"/><rect x="778.5" y="574.5" width="8" height="14" style="fill:#585858;stroke:#585858;stroke-miterlimit:10"/><rect x="778.5" y="602.5" width="8" height="14" style="fill:#585858;stroke:#585858;stroke-miterlimit:10"/><rect x="778.5" y="630.5" width="8" height="14" style="fill:#585858;stroke:#585858;stroke-miterlimit:10"/><rect x="778.5" y="658.5" width="8" height="14" style="fill:#585858;stroke:#585858;stroke-miterlimit:10"/><rect x="778.5" y="686.5" width="8" height="14" style="fill:#585858;stroke:#585858;stroke-miterlimit:10"/><rect x="778.5" y="714.5" width="8" height="14" style="fill:#585858;stroke:#585858;stroke-miterlimit:10"/><rect x="778.5" y="739.5" width="8" height="14" style="fill:#585858;stroke:#585858;stroke-miterlimit:10"/><rect x="1120.5" y="628.5" width="138" height="16" style="fill:#0ed145;stroke:#0ed145;stroke-miterlimit:10"/><rect x="1062.5" y="686.5" width="111" height="16" style="fill:#0ed145;stroke:#0ed145;stroke-miterlimit:10"/><rect x="1112.5" y="712.5" width="91" height="16" style="fill:#0ed145;stroke:#0ed145;stroke-miterlimit:10"/><rect x="1068.5" y="628.5" width="42" height="16" style="fill:#00a8f3;stroke:#00a8f3;stroke-miterlimit:10"/><rect x="1214.5" y="712.5" width="44" height="16" style="fill:#00a8f3;stroke:#00a8f3;stroke-miterlimit:10"/><rect x="1262.5" y="542.5" width="28" height="16" style="fill:#ff7f27;stroke:#ff7f27;stroke-miterlimit:10"/><rect x="1212.5" y="654.5" width="46" height="16" style="fill:#ff7f27;stroke:#ff7f27;stroke-miterlimit:10"/><rect x="1095.5" y="740.5" width="104" height="16" style="fill:#ff7f27;stroke:#ff7f27;stroke-miterlimit:10"/><rect x="1262.5" y="596.5" width="28" height="16" style="fill:#b83dba;stroke:#b83dba;stroke-miterlimit:10"/><rect x="1182.5" y="686.5" width="76" height="16" style="fill:#b83dba;stroke:#b83dba;stroke-miterlimit:10"/><rect x="1262.5" y="769.5" width="28" height="16" style="fill:#b83dba;stroke:#b83dba;stroke-miterlimit:10"/><rect x="1209.5" y="740.5" width="49" height="16" style="fill:#b83dba;stroke:#b83dba;stroke-miterlimit:10"/><rect x="1056.5" y="712.5" width="47" height="16" style="fill:#b83dba;stroke:#b83dba;stroke-miterlimit:10"/><rect x="1314.5" y="536.5" width="8" height="263" style="fill:#585858;stroke:#585858;stroke-miterlimit:10"/><rect x="1344.5" y="547.5" width="8" height="14" style="fill:#585858;stroke:#585858;stroke-miterlimit:10"/><rect x="1344.5" y="575.5" width="8" height="14" style="fill:#585858;stroke:#585858;stroke-miterlimit:10"/><rect x="1344.5" y="603.5" width="8" height="14" style="fill:#585858;stroke:#585858;stroke-miterlimit:10"/><rect x="1344.5" y="631.5" width="8" height="14" style="fill:#585858;stroke:#585858;stroke-miterlimit:10"/><rect x="1344.5" y="659.5" width="8" height="14" style="fill:#585858;stroke:#585858;stroke-miterlimit:10"/><rect x="1344.5" y="687.5" width="8" height="14" style="fill:#585858;stroke:#585858;stroke-miterlimit:10"/><rect x="1344.5" y="715.5" width="8" height="14" style="fill:#585858;stroke:#585858;stroke-miterlimit:10"/><rect x="1344.5" y="743.5" width="8" height="14" style="fill:#585858;stroke:#585858;stroke-miterlimit:10"/><rect x="1344.5" y="771.5" width="8" height="14" style="fill:#585858;stroke:#585858;stroke-miterlimit:10"/><path d="M1019.5,481.5s-39.56,12.59-54.53,73c0,0-40.86-35.45-86.91,0,0,0-7.4-39.49-52.73-73Z" style="fill:#fef4ea;stroke:#fff;stroke-miterlimit:10"/><path d="M844.57,951.33a13.58,13.58,0,0,1-.84-22.72c9.78-6.91,28.47-21.73,67.79-23.49a51.28,51.28,0,0,1,6.79.15c16.14,1.45,86.06,9.32,89.17,36.73a11.73,11.73,0,0,1-2.53,5.76A14,14,0,0,1,994.48,953c-6,.29-19,2.06-35.49,11.07a40.33,40.33,0,0,0-17.87,19.75C937,993.63,930,1009,921,1007c0,0-11.75,1.27-21-23-5.5-14.42-17.8-23.35-33-26C859.66,956.72,851.68,955.54,844.57,951.33Z" style="stroke:#000;stroke-miterlimit:10"/><path d="M1113,975s245,22,275,95c0,0-56-61-273-81C1115,989,1102,981,1113,975Z" style="stroke:#000;stroke-miterlimit:10"/><path d="M929,935.57a4.87,4.87,0,0,1,.43-7.16c2-1.67,5.71-3.41,12.11-3.41s10.55,1.72,13.12,3.38a4.83,4.83,0,0,1,.88,7.41,16.17,16.17,0,0,1-8.42,4.18C939.74,941.53,932.39,939.09,929,935.57Z" style="fill:#fef4ea;stroke:#fff;stroke-miterlimit:10"/><path d="M730.5,982.5s-130,4-235,73c0,0,120-53,229-64C724.5,991.5,743.5,991.5,730.5,982.5Z" style="stroke:#000;stroke-miterlimit:10"/><path d="M741.5,947.5s-272-22-339,40c0,0,106.1-50.75,332.55-31.38C735.05,956.12,758.5,959.5,741.5,947.5Z" style="stroke:#000;stroke-miterlimit:10"/><path d="M732.67,1007.18s-89.17-1.68-144.17,69.32c0,0,61-57,141-62C729.5,1014.5,748.84,1014.85,732.67,1007.18Z" style="stroke:#000;stroke-miterlimit:10"/><path d="M1117.5,936.5s283,2,325,66c0,0-56-55-323-56C1119.5,946.5,1096.5,949.5,1117.5,936.5Z" style="stroke:#000;stroke-miterlimit:10"/><path d="M1097.77,1007.18s97.73.32,134.73,75.32c0,0-57.92-74-132.46-63.5C1100,1019,1082,1014.85,1097.77,1007.18Z" style="stroke:#000;stroke-miterlimit:10"/></g><g id="Texto"><text transform="translate(1.06 1355.34) scale(1.06 1)" style="font-size:188.68814086914062px;font-family:Tillana-Medium, Tillana;font-weight:500;letter-spacing:-0.02800048914946481em">&lt; JYMMY MURILLO /&gt;</text><text transform="translate(485.13 1464.3)" style="font-size:84px;font-family:Verdana;letter-spacing:-0.05000232514880952em">FULL S<tspan x="265.03" y="0" style="letter-spacing:-0.10859026227678571em">T</tspan><tspan x="307.67" y="0">ACK DEVE</tspan><tspan x="706.25" y="0" style="letter-spacing:-0.05976795014880952em">L</tspan><tspan x="747.99" y="0" style="letter-spacing:-0.04999651227678571em">OPER</tspan></text></g></svg>